<mxfile host="app.diagrams.net" modified="2024-02-16T07:52:58.706Z" agent="Mozilla/5.0 (Windows NT 10.0; Win64; x64) AppleWebKit/537.36 (KHTML, like Gecko) Chrome/121.0.0.0 Safari/537.36" version="23.1.3" etag="QuwJVr9EwYTdFBn_nqkY" type="github">
  <diagram name="Страница — 1" id="RcZKACBbixhmg06L8d6q">
    <mxGraphModel>
      <root>
        <mxCell id="0" />
        <mxCell id="1" parent="0" />
      </root>
    </mxGraphModel>
  </diagram>
</mxfile>
